<svg width="643" height="788" viewBox="0 0 643 788" fill="none" xmlns="http://www.w3.org/2000/svg">
<path d="M269.204 20.5671C292.595 10.8613 317.318 2.86016 343.023 1.50345C368.728 0.14673 395.686 6.06065 414.989 21.4281C418.886 24.5329 422.514 28.0291 427.124 30.1946C445.279 38.7176 466.609 23.0457 486.982 24.8981C505.554 26.594 518.559 42.3354 525.692 57.8942C528.241 63.4602 530.955 69.7567 537.061 72.1831C541.602 73.9834 546.891 73.1137 551.719 74.1486C564.028 76.7751 568.943 89.89 571.779 101.005C579.294 130.513 586.819 160.013 594.335 189.522C595.066 192.4 595.875 195.41 598.049 197.61C599.911 199.497 602.564 200.567 604.965 201.88C617.9 208.924 623.911 224.77 618.492 237.485C635.951 247.626 645.137 268.124 640.387 286.353C635.637 304.582 617.283 319.245 596.64 321.306C590.403 321.932 583.209 321.845 579.138 326.15C575.45 330.046 576.076 335.786 575.519 340.883C574.119 353.797 562.949 365.373 548.961 368.426C540.976 370.165 532.529 369.321 524.483 370.843C516.732 372.304 509.712 375.87 502.692 379.158C458.04 400.048 407.804 411.153 357.498 411.258" fill="#00833E"/>
<path d="M269.552 21.8282C302.608 8.14794 338.909 -2.22754 374.809 5.00828C382.873 6.6346 390.806 9.10453 398.253 12.6268C405.699 16.149 412.136 20.8367 418.53 26.02C424.506 30.8729 430.926 33.9168 438.72 34.0472C446.514 34.1777 453.734 32.0817 460.972 30.1336C468.627 28.0725 476.447 25.8722 484.45 26.0635C492.001 26.2462 499.125 28.9508 505.206 33.3688C511.286 37.7869 516.027 43.5616 519.89 49.8147C523.552 55.746 525.614 62.7992 529.946 68.2782C532.042 70.9221 534.756 72.9485 538.027 73.8878C542.15 75.0792 546.491 74.5313 550.675 75.2705C557.747 76.5229 562.619 81.6975 565.759 87.8723C569.169 94.5602 570.691 102.04 572.527 109.258C575.015 119.007 577.494 128.756 579.982 138.497C582.4 147.977 584.819 157.465 587.237 166.945C588.481 171.815 589.725 176.694 590.96 181.564C592.047 185.825 592.804 190.409 594.527 194.47C596.118 198.227 598.954 200.236 602.477 202.045C606 203.854 608.914 205.802 611.524 208.594C616.248 213.647 619.136 220.456 619.179 227.405C619.197 230.771 618.518 234.032 617.231 237.128C617.013 237.65 617.379 238.337 617.831 238.598C637.369 250.113 646.877 275.725 634.924 296.024C629.122 305.877 619.475 313.348 608.767 317.201C603.182 319.21 597.554 319.871 591.691 320.419C586.48 320.906 580.626 321.801 577.311 326.324C573.997 330.846 574.98 337.073 573.98 342.457C572.979 347.84 570.213 352.954 566.438 357.006C562.462 361.268 557.399 364.503 551.858 366.286C545.108 368.46 537.957 368.199 530.964 368.73C523.97 369.26 517.654 371.017 511.313 373.748C504.971 376.479 498.882 379.558 492.575 382.271C479.449 387.915 465.939 392.681 452.203 396.595C424.828 404.405 396.504 408.84 368.05 409.762C364.527 409.875 361.013 409.936 357.49 409.944C355.811 409.944 355.811 412.562 357.49 412.553C386.709 412.458 415.92 408.753 444.227 401.456C458.319 397.83 472.185 393.316 485.694 387.915C492.332 385.263 498.864 382.393 505.328 379.34C511.791 376.288 518.428 373.165 525.588 371.948C532.747 370.73 540.724 371.304 548.179 369.895C553.911 368.817 559.339 366.347 563.95 362.772C568.282 359.415 571.935 355.076 574.241 350.084C575.345 347.692 576.172 345.187 576.589 342.587C577.076 339.587 576.989 336.534 577.398 333.525C577.842 330.272 579.086 327.263 581.991 325.489C584.592 323.897 587.767 323.419 590.751 323.106C596.745 322.48 602.556 322.028 608.314 320.097C619.005 316.522 628.644 309.669 635.168 300.433C641.692 291.197 644.102 280.543 642.379 269.69C640.657 258.836 634.594 248.4 626.086 241.225C623.92 239.398 621.598 237.763 619.153 236.328L619.753 237.798C625.068 224.935 619.362 209.89 608.123 202.237C604.722 199.923 600.068 198.766 597.789 195.122C595.509 191.478 594.857 186.243 593.787 182.025C591.273 172.145 588.75 162.266 586.236 152.386C583.722 142.506 581.2 132.627 578.686 122.747C576.415 113.841 574.449 104.779 571.753 95.9865C569.839 89.7421 567.177 83.3674 562.506 78.6536C560.305 76.4359 557.678 74.6965 554.746 73.6181C550.797 72.1657 546.63 72.3657 542.516 71.9831C538.184 71.583 534.617 69.9741 531.912 66.5127C529.72 63.7123 528.302 60.3901 526.823 57.1897C523.769 50.58 519.898 44.3183 515.062 38.8566C510.225 33.395 504.493 28.9247 497.803 26.1852C490.783 23.3065 483.311 22.9239 475.865 24.011C467.905 25.1764 460.259 27.7681 452.447 29.5944C444.835 31.3773 436.676 32.5079 429.177 29.6118C425.167 28.0638 421.827 25.3242 418.556 22.6108C415.285 19.8974 412.215 17.5405 408.77 15.3576C401.985 11.07 394.573 7.78262 386.918 5.36488C352.175 -5.59321 315.143 1.69475 281.853 14.1226C277.494 15.7489 273.171 17.4709 268.865 19.2538C267.334 19.8887 268.004 22.4108 269.561 21.7672L269.552 21.8282Z" fill="#006837"/>
<path d="M373.714 21.5671C350.322 11.8613 325.6 3.86016 299.895 2.50345C274.19 1.14673 247.232 7.06065 227.929 22.4281C224.032 25.5329 220.404 29.0291 215.794 31.1946C197.639 39.7176 176.309 24.0457 155.936 25.8981C137.364 27.594 124.359 43.3354 117.226 58.8942C114.677 64.4602 111.963 70.7567 105.857 73.1831C101.316 74.9834 96.027 74.1137 91.1991 75.1486C78.8901 77.7751 73.9752 90.89 71.1394 102.005C63.6235 131.513 56.0989 161.013 48.5831 190.522C47.8524 193.4 47.0433 196.41 44.8686 198.61C43.007 200.497 40.3539 201.567 37.953 202.88C25.0177 209.924 19.0067 225.77 24.4262 238.485C6.96742 248.626 -2.21862 269.124 2.53099 287.353C7.2806 305.582 25.6353 320.245 46.2778 322.306C52.515 322.932 59.709 322.845 63.7801 327.15C67.4684 331.046 66.8421 336.786 67.3988 341.883C68.7994 354.797 79.9687 366.373 93.9566 369.426C101.942 371.165 110.389 370.321 118.435 371.843C126.186 373.304 133.206 376.87 140.226 380.158C184.878 401.048 235.114 412.153 285.42 412.258" fill="#00833E"/>
<path d="M373.366 22.8282C340.31 9.14794 304.009 -1.22754 268.109 6.00828C260.045 7.6346 252.111 10.1045 244.665 13.6268C237.219 17.149 230.782 21.8367 224.388 27.02C218.412 31.8729 211.992 34.9168 204.198 35.0472C196.404 35.1777 189.183 33.0817 181.946 31.1336C174.291 29.0725 166.471 26.8722 158.468 27.0635C150.917 27.2462 143.793 29.9508 137.712 34.3688C131.631 38.7869 126.891 44.5616 123.028 50.8147C119.366 56.746 117.304 63.7992 112.972 69.2782C110.876 71.9221 108.162 73.9485 104.891 74.8878C100.768 76.0792 96.4269 75.5313 92.2427 76.2705C85.1705 77.5229 80.2991 82.6975 77.1588 88.8723C73.7488 95.5602 72.2265 103.04 70.3911 110.258C67.9032 120.007 65.424 129.756 62.9361 139.497C60.5178 148.977 58.0995 158.465 55.6812 167.945C54.4372 172.815 53.1933 177.694 51.9581 182.564C50.8707 186.825 50.1138 191.409 48.3915 195.47C46.7996 199.227 43.9638 201.236 40.4407 203.045C36.9176 204.854 34.0035 206.802 31.3938 209.594C26.6703 214.647 23.7823 221.456 23.7388 228.405C23.7214 231.771 24.3999 235.032 25.6873 238.128C25.9048 238.65 25.5394 239.337 25.0871 239.598C5.54931 251.113 -3.95863 276.725 7.99368 297.024C13.7959 306.877 23.443 314.348 34.1513 318.201C39.736 320.21 45.3642 320.871 51.2273 321.419C56.438 321.906 62.2924 322.801 65.6067 327.324C68.9209 331.846 67.938 338.073 68.9384 343.457C69.9387 348.84 72.705 353.954 76.4803 358.006C80.4557 362.268 85.5185 365.503 91.0597 367.286C97.8101 369.46 104.961 369.199 111.954 369.73C118.948 370.26 125.264 372.017 131.605 374.748C137.947 377.479 144.036 380.558 150.343 383.271C163.469 388.915 176.979 393.681 190.714 397.595C218.09 405.405 246.414 409.84 274.868 410.762C278.391 410.875 281.905 410.936 285.428 410.944C287.107 410.944 287.107 413.562 285.428 413.554C256.209 413.458 226.998 409.753 198.691 402.456C184.599 398.83 170.733 394.316 157.224 388.915C150.586 386.263 144.054 383.393 137.59 380.34C131.127 377.287 124.49 374.165 117.33 372.948C110.171 371.73 102.194 372.304 94.7393 370.895C89.0067 369.817 83.5786 367.347 78.9682 363.772C74.6361 360.415 70.9826 356.076 68.6773 351.084C67.5726 348.692 66.7462 346.187 66.3287 343.587C65.8415 340.587 65.9285 337.534 65.5196 334.525C65.076 331.272 63.8321 328.263 60.9266 326.489C58.3257 324.897 55.1505 324.419 52.1668 324.106C46.1733 323.48 40.3624 323.028 34.6037 321.097C23.9127 317.522 14.2743 310.669 7.75014 301.433C1.22595 292.197 -1.18363 281.543 0.538754 270.69C2.26114 259.836 8.32427 249.4 16.8318 242.225C18.9978 240.398 21.3204 238.763 23.7648 237.328L23.1646 238.798C17.8496 225.935 23.5561 210.89 34.7951 203.237C38.1964 200.923 42.8503 199.766 45.1294 196.122C47.4085 192.478 48.0609 187.243 49.1309 183.025C51.6449 173.145 54.1676 163.266 56.6816 153.386C59.1955 143.506 61.7182 133.627 64.2322 123.747C66.5026 114.841 68.4686 105.779 71.1653 96.9865C73.079 90.7421 75.7409 84.3674 80.4122 79.6536C82.613 77.4359 85.2401 75.6965 88.1717 74.6181C92.121 73.1657 96.2877 73.3657 100.402 72.9831C104.734 72.583 108.301 70.9741 111.006 67.5127C113.198 64.7123 114.616 61.3901 116.095 58.1897C119.148 51.58 123.02 45.3183 127.856 39.8566C132.693 34.395 138.425 29.9247 145.115 27.1852C152.135 24.3065 159.607 23.9239 167.053 25.011C175.013 26.1764 182.659 28.7681 190.471 30.5944C198.082 32.3773 206.242 33.5079 213.741 30.6118C217.751 29.0638 221.091 26.3242 224.362 23.6108C227.633 20.8974 230.703 18.5405 234.148 16.3576C240.933 12.07 248.345 8.78262 256 6.36488C290.743 -4.59321 327.775 2.69475 361.065 15.1226C365.424 16.7489 369.747 18.4709 374.053 20.2538C375.584 20.8887 374.914 23.4108 373.357 22.7672L373.366 22.8282Z" fill="#006837"/>
<path d="M292.43 179.552C302.643 149.453 312.857 119.361 323.07 89.2614C314.39 150.314 317.661 212.827 332.67 272.792C335.895 254.833 339.12 236.882 342.336 218.923C344.938 204.417 348.302 188.623 360.384 179.205C372.112 170.064 388.812 169.508 402.697 163.568C426.665 153.314 439.824 125.014 431.516 101.611C433.644 116.77 435.782 131.937 437.91 147.096C438.672 152.496 439.397 158.193 437.176 163.237C432.278 174.387 416.804 176.352 404.983 181.127C378.878 191.667 367.056 219.845 360.542 245.745C350.086 287.333 346.499 330.426 349.947 373.024C365.263 347.733 385.588 321.477 415.94 315.285C443.532 309.649 478.439 320.303 496.542 300.022C505.464 307.371 498.475 322.277 487.584 326.713C476.692 331.148 464.21 329.252 452.352 329.939C416.767 332 386.944 358.369 372.549 388.895C358.153 419.421 356.35 453.67 355.449 487.014C354.742 513.444 354.473 539.891 354.687 566.329C355.17 626.399 360.913 692.669 406.637 734.832C422.808 749.747 444.982 764.019 444.694 785.265C401.73 754.565 348.488 736.649 294.465 734.719" fill="#754C24"/>
<path d="M293.778 179.9C303.991 149.8 314.205 119.709 324.418 89.6092L321.677 89.2613C314.976 136.851 315.431 185.214 323.033 232.682C325.208 246.266 327.996 259.755 331.323 273.14C331.621 274.34 333.777 274.427 334.009 273.14C337.187 255.407 340.366 237.674 343.553 219.941C346.016 206.252 348.776 190.493 360.514 180.814C372.103 171.256 388.673 170.716 402.344 165.133C414.221 160.289 423.7 151.174 429.342 140.329C435.652 128.223 437.269 114.16 432.845 101.263C432.39 99.941 429.89 100.08 430.104 101.611C431.786 113.56 433.468 125.501 435.141 137.451C436.498 147.069 440.466 159.767 432.39 167.699C426.396 173.578 417.046 175.508 409.175 178.196C401.303 180.883 394.017 184.797 387.856 190.284C374.993 201.729 367.624 217.68 362.614 233.325C356.137 253.554 352.429 274.757 349.957 295.717C346.936 321.381 346.5 347.281 348.535 373.032C348.628 374.267 350.412 374.885 351.137 373.693C363.079 354.029 377.596 333.54 399.389 322.469C421.182 311.397 444.732 316.389 467.975 313.867C479.238 312.641 489.935 309.18 497.509 300.944H495.539C502.556 307.153 498.281 317.32 491.998 322.495C483.244 329.713 469.796 328.417 458.979 328.461C439.769 328.539 422 334.444 406.768 345.385C373.023 369.64 360.3 408.707 356.304 446.851C353.962 469.255 353.813 491.867 353.47 514.357C353.126 536.847 352.949 558.92 353.525 581.184C354.473 617.693 357.93 655.386 373.042 689.451C380.244 705.68 390.197 720.83 403.273 733.51C416.005 745.859 433.505 756.348 440.689 772.768C442.436 776.759 443.282 780.951 443.3 785.256L445.401 784.126C411.656 760.131 371.824 743.851 330.078 736.971C318.303 735.032 306.407 733.849 294.465 733.397C292.672 733.327 292.672 735.936 294.465 736.006C348.405 738.058 401.015 755.817 443.988 786.378C444.862 786.996 446.088 786.152 446.088 785.248C446.042 767.889 432.148 755.183 419.425 744.207C412.446 738.189 405.42 732.257 399.286 725.465C393.153 718.673 387.335 710.559 382.642 702.358C363.553 669.031 358.414 630.208 356.741 592.959C355.765 571.33 355.914 549.658 356.109 528.02C356.323 504.947 356.481 481.778 358.079 458.749C360.932 417.821 371.573 374.328 407.902 347.837C415.532 342.271 424.082 337.732 433.254 334.809C443.449 331.565 453.653 331.035 464.341 331.07C473.904 331.096 485.047 331.035 492.909 325.165C498.569 320.938 502.862 313.789 501.859 306.849C501.422 303.796 499.907 301.196 497.528 299.091C497.007 298.63 496.06 298.543 495.558 299.091C479.889 316.129 452.222 311.249 430.94 312.258C419.751 312.789 408.933 314.833 398.952 319.729C388.478 324.86 379.51 332.374 371.815 340.706C362.865 350.394 355.496 361.257 348.749 372.363L351.351 373.023C347.801 328.182 351.276 281.837 363.99 238.37C368.841 221.785 376.025 204.634 389.482 192.45C396.192 186.38 404.045 182.605 412.781 179.761C420.16 177.361 428.384 175.143 434.072 169.838C442.12 162.333 439.964 151.775 438.626 142.269C436.721 128.71 434.815 115.161 432.91 101.602L430.169 101.95C438.774 127.101 423.422 155.488 397 164.307C383.673 168.751 368.432 170.16 357.726 179.665C347.624 188.632 344.139 202.034 341.76 214.392C338.042 233.699 334.79 253.093 331.323 272.435H334.009C322.383 225.707 317.783 177.526 320.468 129.606C321.221 116.109 322.569 102.646 324.455 89.2526C324.669 87.7393 322.169 87.5654 321.714 88.9047C311.5 119.005 301.287 149.096 291.073 179.196C290.525 180.796 293.22 181.483 293.759 179.892L293.778 179.9Z" fill="#754C24"/>
<path d="M319.575 180.552C309.362 150.453 299.148 120.361 288.935 90.2614C297.615 151.314 294.343 213.827 279.334 273.792C276.11 255.833 272.885 237.882 269.669 219.923C267.067 205.417 263.703 189.623 251.621 180.205C239.893 171.064 223.193 170.508 209.308 164.568C185.34 154.314 172.181 126.014 180.489 102.611C178.361 117.77 176.223 132.937 174.095 148.096C173.333 153.496 172.608 159.193 174.829 164.237C179.727 175.387 195.201 177.352 207.022 182.127C233.127 192.667 244.949 220.845 251.463 246.745C261.918 288.333 265.506 331.426 262.058 374.024C246.742 348.733 226.417 322.477 196.065 316.285C168.472 310.649 133.566 321.303 115.462 301.022C106.541 308.371 113.529 323.277 124.421 327.713C135.313 332.148 147.794 330.252 159.653 330.939C195.238 333 225.06 359.369 239.456 389.895C253.852 420.421 255.655 454.67 256.556 488.014C257.262 514.444 257.532 540.891 257.318 567.329C256.835 627.399 251.092 693.669 205.368 735.832C189.197 750.747 167.023 765.019 167.311 786.265C210.275 755.565 263.517 737.649 317.54 735.719" fill="#754C24"/>
<path d="M318.227 180.9C308.014 150.8 297.8 120.709 287.587 90.6092L290.328 90.2613C297.029 137.851 296.573 186.214 288.971 233.682C286.797 247.266 284.009 260.755 280.682 274.14C280.384 275.34 278.228 275.427 277.996 274.14C274.817 256.407 271.639 238.674 268.451 220.941C265.989 207.252 263.228 191.493 251.491 181.814C239.902 172.256 223.332 171.716 209.661 166.133C197.784 161.289 188.304 152.174 182.663 141.329C176.353 129.223 174.736 115.16 179.16 102.263C179.615 100.941 182.115 101.08 181.901 102.611C180.219 114.56 178.537 126.501 176.864 138.451C175.507 148.069 171.539 160.767 179.615 168.699C185.609 174.578 194.959 176.508 202.83 179.196C210.702 181.883 217.988 185.797 224.149 191.284C237.012 202.729 244.381 218.68 249.39 234.325C255.868 254.554 259.576 275.757 262.048 296.717C265.069 322.381 265.505 348.281 263.47 374.032C263.377 375.267 261.593 375.885 260.868 374.693C248.926 355.029 234.409 334.54 212.616 323.469C190.823 312.397 167.273 317.389 144.03 314.867C132.767 313.641 122.07 310.18 114.496 301.944H116.466C109.449 308.153 113.724 318.32 120.007 323.495C128.761 330.713 142.209 329.417 153.026 329.461C172.236 329.539 190.005 335.444 205.237 346.385C238.982 370.64 251.705 409.707 255.701 447.851C258.043 470.255 258.191 492.867 258.535 515.357C258.879 537.847 259.056 559.92 258.48 582.184C257.532 618.693 254.074 656.386 238.963 690.451C231.761 706.68 221.807 721.83 208.731 734.51C195.999 746.859 178.5 757.348 171.316 773.768C169.569 777.759 168.723 781.951 168.704 786.256L166.604 785.126C200.349 761.131 240.181 744.851 281.927 737.971C293.702 736.032 305.597 734.849 317.54 734.397C319.333 734.327 319.333 736.936 317.54 737.006C263.6 739.058 210.99 756.817 168.017 787.378C167.143 787.996 165.916 787.152 165.916 786.248C165.963 768.889 179.857 756.183 192.579 745.207C199.559 739.189 206.585 733.257 212.718 726.465C218.852 719.673 224.67 711.559 229.363 703.358C248.452 670.031 253.591 631.208 255.264 593.959C256.24 572.33 256.091 550.658 255.896 529.02C255.682 505.947 255.524 482.778 253.926 459.749C251.073 418.821 240.432 375.328 204.103 348.837C196.473 343.271 187.923 338.732 178.751 335.809C168.556 332.565 158.352 332.035 147.664 332.07C138.101 332.096 126.958 332.035 119.096 326.165C113.436 321.938 109.143 314.789 110.146 307.849C110.583 304.796 112.098 302.196 114.477 300.091C114.997 299.63 115.945 299.543 116.447 300.091C132.116 317.129 159.783 312.249 181.065 313.258C192.254 313.789 203.072 315.833 213.053 320.729C223.527 325.86 232.495 333.374 240.19 341.706C249.14 351.394 256.509 362.257 263.256 373.363L260.654 374.023C264.204 329.182 260.729 282.837 248.015 239.37C243.164 222.785 235.98 205.634 222.523 193.45C215.813 187.38 207.96 183.605 199.224 180.761C191.845 178.361 183.62 176.143 177.933 170.838C169.885 163.333 172.041 152.775 173.379 143.269C175.284 129.71 177.189 116.161 179.095 102.602L181.836 102.95C173.23 128.101 188.583 156.488 215.005 165.307C228.331 169.751 243.573 171.16 254.279 180.665C264.381 189.632 267.866 203.034 270.245 215.392C273.962 234.699 277.215 254.093 280.682 273.435H277.996C289.622 226.707 294.222 178.526 291.536 130.606C290.784 117.109 289.436 103.646 287.55 90.2526C287.336 88.7393 289.836 88.5654 290.291 89.9047C300.505 120.005 310.718 150.096 320.932 180.196C321.48 181.796 318.785 182.483 318.246 180.892L318.227 180.9Z" fill="#754C24"/>
</svg>
